<svg width="5014" height="1223" viewBox="0 0 5014 1223" fill="none" xmlns="http://www.w3.org/2000/svg">
<g id="CombinedWifes">
<g id="Wives">
<rect id="Rectangle 2" x="2" width="2506" height="1223" fill="url(#paint0_linear)"/>
<g id="Curve1">
<path id="Line 2" d="M2 772.595C302.272 772.595 252.505 286 629.727 286" stroke="#BD8008" stroke-width="6"/>
<path id="Line 3" d="M1255.73 772.595C955.455 772.595 1005.22 286 628 286" stroke="#BD8008" stroke-width="6"/>
<path id="Line 5" d="M2507.73 772.595C2207.46 772.595 2257.22 286 1880 286" stroke="#BD8008" stroke-width="6"/>
<path id="Line 4" d="M1254 772.595C1554.27 772.595 1504.51 286 1881.73 286" stroke="#BD8008" stroke-width="6"/>
</g>
<g id="Curve2">
<path id="Line 2_2" d="M0.999998 872.595C301.272 872.595 251.505 386 628.727 386" stroke="#D38208" strokeOpacity="0.5" stroke-width="6"/>
<path id="Line 3_2" d="M1254.73 872.595C954.455 872.595 1004.22 386 627 386" stroke="#D38208" strokeOpacity="0.5" stroke-width="6"/>
<path id="Line 5_2" d="M2506.73 872.595C2206.46 872.595 2256.22 386 1879 386" stroke="#D38208" strokeOpacity="0.5" stroke-width="6"/>
<path id="Line 4_2" d="M1253 872.595C1553.27 872.595 1503.51 386 1880.73 386" stroke="#D38208" strokeOpacity="0.5" stroke-width="6"/>
</g>
<g id="Curve3">
<path id="Line 2_3" d="M-1.5216e-06 667.595C300.272 667.595 250.505 181 627.727 181" stroke="#D38208" strokeOpacity="0.5" stroke-width="6"/>
<path id="Line 3_3" d="M1253.73 667.595C953.455 667.595 1003.22 181 626 181" stroke="#D38208" strokeOpacity="0.5" stroke-width="6"/>
<path id="Line 5_3" d="M2505.73 667.595C2205.46 667.595 2255.22 181 1878 181" stroke="#D38208" strokeOpacity="0.5" stroke-width="6"/>
<path id="Line 4_3" d="M1252 667.595C1552.27 667.595 1502.51 181 1879.73 181" stroke="#D38208" strokeOpacity="0.5" stroke-width="6"/>
</g>
</g>
<g id="Wives_2">
<rect id="Rectangle 2_2" x="2508" width="2506" height="1223" fill="url(#paint1_linear)"/>
<g id="Curve1_2">
<path id="Line 2_4" d="M2508 772.595C2808.27 772.595 2758.51 286 3135.73 286" stroke="#BD8008" stroke-width="6"/>
<path id="Line 3_4" d="M3761.73 772.595C3461.46 772.595 3511.22 286 3134 286" stroke="#BD8008" stroke-width="6"/>
<path id="Line 5_4" d="M5013.73 772.595C4713.46 772.595 4763.22 286 4386 286" stroke="#BD8008" stroke-width="6"/>
<path id="Line 4_4" d="M3760 772.595C4060.27 772.595 4010.51 286 4387.73 286" stroke="#BD8008" stroke-width="6"/>
</g>
<g id="Curve2_2">
<path id="Line 2_5" d="M2507 872.595C2807.27 872.595 2757.51 386 3134.73 386" stroke="#D38208" strokeOpacity="0.5" stroke-width="6"/>
<path id="Line 3_5" d="M3760.73 872.595C3460.46 872.595 3510.22 386 3133 386" stroke="#D38208" strokeOpacity="0.5" stroke-width="6"/>
<path id="Line 5_5" d="M5012.73 872.595C4712.46 872.595 4762.22 386 4385 386" stroke="#D38208" strokeOpacity="0.5" stroke-width="6"/>
<path id="Line 4_5" d="M3759 872.595C4059.27 872.595 4009.51 386 4386.73 386" stroke="#D38208" strokeOpacity="0.5" stroke-width="6"/>
</g>
<g id="Curve3_2">
<path id="Line 2_6" d="M2506 667.595C2806.27 667.595 2756.51 181 3133.73 181" stroke="#D38208" strokeOpacity="0.5" stroke-width="6"/>
<path id="Line 3_6" d="M3759.73 667.595C3459.46 667.595 3509.22 181 3132 181" stroke="#D38208" strokeOpacity="0.5" stroke-width="6"/>
<path id="Line 5_6" d="M5011.73 667.595C4711.46 667.595 4761.22 181 4384 181" stroke="#D38208" strokeOpacity="0.5" stroke-width="6"/>
<path id="Line 4_6" d="M3758 667.595C4058.27 667.595 4008.51 181 4385.73 181" stroke="#D38208" strokeOpacity="0.5" stroke-width="6"/>
</g>
</g>
</g>
<defs>
<linearGradient id="paint0_linear" x1="2508" y1="612" x2="1.99999" y2="612" gradientUnits="userSpaceOnUse">
<stop stopColor="#FED2AA"/>
<stop offset="0.498801" stopColor="#EBAC71"/>
<stop offset="1" stopColor="#FED2AA"/>
</linearGradient>
<linearGradient id="paint1_linear" x1="5014" y1="612" x2="2508" y2="612" gradientUnits="userSpaceOnUse">
<stop stopColor="#FED2AA"/>
<stop offset="0.498801" stopColor="#EBAC71"/>
<stop offset="1" stopColor="#FED2AA"/>
</linearGradient>
</defs>
</svg>
