<?xml version="1.0" standalone="no"?>
<!DOCTYPE svg PUBLIC "-//W3C//DTD SVG 20010904//EN"
 "http://www.w3.org/TR/2001/REC-SVG-20010904/DTD/svg10.dtd">
<svg version="1.0" xmlns="http://www.w3.org/2000/svg"
 width="2000.000000pt" height="2000.000000pt" viewBox="0 0 2000.000000 2000.000000"
 preserveAspectRatio="xMidYMid meet">
<metadata>
Created by potrace 1.15, written by Peter Selinger 2001-2017
</metadata>
<g transform="translate(0.000000,2000.000000) scale(0.100000,-0.100000)"
fill="#000000" stroke="none">
<path d="M9760 16420 c-832 -159 -1505 -620 -1902 -1300 -101 -174 -201 -394
-253 -560 l-17 -55 -237 0 c-299 -1 -418 -18 -676 -97 -251 -78 -525 -223
-760 -404 -50 -38 -149 -127 -220 -199 -215 -214 -363 -423 -510 -720 -217
-437 -306 -834 -292 -1290 12 -372 82 -663 237 -980 199 -410 533 -746 980
-988 200 -108 484 -216 720 -273 63 -15 116 -29 118 -30 2 -1 -62 -432 -143
-958 l-146 -956 37 -67 c49 -88 199 -238 319 -320 592 -401 1859 -647 3345
-647 429 0 572 6 960 39 406 36 790 105 972 176 94 36 188 82 188 91 0 23 -56
148 -67 148 -6 0 -44 -7 -85 -15 -199 -42 -534 -85 -838 -107 -220 -15 -901
-15 -1155 1 -1302 82 -2441 360 -2850 698 -75 62 -110 108 -107 142 1 14 84
552 183 1194 99 643 178 1171 175 1175 -4 3 -61 9 -129 13 -245 16 -426 44
-648 99 -160 41 -271 81 -424 154 -224 108 -378 218 -528 377 -216 229 -344
485 -403 804 -14 76 -19 150 -19 305 0 224 11 307 67 519 143 546 516 1021
986 1259 225 114 406 161 659 169 248 8 437 -22 673 -107 151 -55 154 -55 158
-5 6 81 44 354 67 476 122 645 370 1163 727 1519 184 183 355 306 561 405 107
52 343 136 423 151 30 6 35 10 30 28 -3 11 -6 54 -6 94 0 51 -4 72 -12 71 -7
0 -78 -13 -158 -29z"/>
<path d="M11097 16088 c32 -175 35 -184 66 -212 233 -208 340 -327 476 -535
255 -391 415 -881 490 -1506 12 -93 21 -174 21 -178 0 -4 8 -3 18 2 36 19 259
92 352 116 287 71 631 57 904 -37 325 -112 608 -322 840 -623 199 -258 328
-549 398 -900 30 -152 33 -508 4 -660 -63 -338 -192 -582 -435 -826 -136 -135
-274 -235 -446 -322 -302 -153 -703 -252 -1102 -273 -72 -4 -136 -10 -141 -13
-6 -4 54 -446 154 -1126 90 -616 164 -1130 164 -1142 0 -57 -142 -162 -311
-230 -243 -97 -619 -164 -1098 -194 -243 -15 -1040 -6 -1291 15 -613 50 -1142
130 -1540 230 l-165 42 -37 -78 -37 -77 62 -39 c295 -186 819 -347 1503 -461
693 -115 1550 -144 2134 -71 782 98 1268 324 1469 682 l32 57 -126 868 c-69
477 -128 882 -131 899 l-6 31 64 12 c81 16 273 73 412 122 226 81 517 238 701
377 531 402 832 968 884 1657 9 114 1 392 -14 501 -69 510 -278 999 -602 1407
-327 412 -793 715 -1293 842 -188 47 -282 58 -539 61 l-244 3 -37 103 c-54
151 -74 199 -146 345 -225 456 -598 855 -1045 1116 -89 52 -376 197 -390 197
-3 0 9 -82 28 -182z"/>
<path d="M4482 5676 c-23 -39 -70 -56 -88 -32 -15 21 -73 15 -91 -10 -8 -10
-26 -44 -39 -74 l-25 -56 -59 2 c-47 2 -62 -2 -76 -17 -16 -18 -16 -19 10 -19
15 0 36 -5 47 -11 21 -11 17 -29 -8 -29 -8 0 -28 -9 -43 -20 -19 -13 -37 -19
-52 -15 -34 9 -58 -23 -64 -84 -3 -32 -1 -51 6 -51 5 0 10 9 10 20 0 23 48 70
71 70 20 0 43 -26 35 -39 -4 -6 -13 -8 -21 -5 -9 4 -18 -1 -22 -12 -4 -10 -2
-19 5 -22 17 -5 15 -22 -3 -22 -9 0 -12 -6 -8 -16 4 -12 18 -15 52 -14 75 4
74 5 67 -40 -3 -23 -18 -73 -32 -113 -33 -94 -126 -490 -198 -848 -21 -101
-24 -109 -50 -109 -11 0 -68 -14 -126 -30 -58 -17 -115 -30 -127 -30 -13 0
-23 -5 -23 -11 0 -6 8 -8 18 -5 9 3 53 10 97 16 44 5 102 17 128 26 27 9 50
14 53 11 2 -2 0 -16 -5 -30 -7 -19 -21 -28 -53 -35 -115 -27 -214 -54 -223
-63 -12 -12 -8 -12 51 5 85 24 124 27 124 9 0 -12 7 -14 34 -9 37 7 55 -6 38
-27 -5 -7 -11 -21 -13 -31 -3 -16 -14 -20 -58 -22 -29 -1 -59 -8 -65 -15 -8
-9 4 -10 57 -5 56 5 68 4 73 -9 5 -12 9 -13 20 -4 20 17 18 -21 -6 -106 -11
-38 -20 -81 -20 -95 l0 -25 13 24 c6 14 18 26 26 29 14 5 14 4 -6 -68 -6 -22
-5 -23 10 -12 9 8 21 29 27 48 6 18 25 43 42 55 l30 22 -7 -49 c-5 -36 -4 -45
4 -34 6 8 11 23 11 32 0 10 9 22 19 28 11 5 30 37 42 69 13 38 28 61 40 64 10
3 23 17 29 31 15 42 25 30 22 -26 l-2 -53 27 77 c16 42 32 80 36 85 5 4 34 16
65 25 31 9 49 17 40 17 -19 1 -22 9 -10 28 8 13 104 63 121 63 16 0 13 -20 -4
-26 -8 -4 -12 -10 -9 -16 3 -5 16 -2 30 7 14 9 33 13 45 10 13 -4 19 -2 17 6
-2 8 26 29 63 49 36 19 80 45 97 58 18 13 40 22 49 20 14 -3 11 -9 -15 -36
-89 -91 135 40 233 137 41 41 75 78 75 84 0 5 17 30 38 56 21 25 49 63 61 84
l23 37 -22 0 c-20 0 -20 2 8 43 40 57 68 115 77 157 10 47 7 132 -5 144 -13
13 -13 53 0 61 6 3 15 -6 20 -22 6 -15 14 -37 19 -48 5 -11 14 -33 20 -50 8
-25 9 -19 5 30 -7 82 -31 156 -58 180 -13 11 -28 38 -34 61 -15 51 -67 124
-88 124 -20 0 -43 28 -44 53 0 9 -5 17 -11 17 -6 0 -33 22 -60 49 -59 60 -139
98 -294 142 -113 32 -118 34 -132 67 -8 19 -13 56 -12 81 1 26 -1 52 -5 59
-14 22 -44 12 -64 -22z m156 -531 c162 -38 271 -137 273 -248 3 -114 -23 -221
-55 -233 -8 -3 -18 -18 -21 -34 -3 -15 -19 -49 -36 -74 -16 -26 -29 -51 -29
-56 0 -6 -4 -10 -10 -10 -6 0 -9 -3 -8 -7 5 -15 -35 -64 -64 -79 -26 -13 -29
-13 -35 2 -4 12 5 27 28 49 57 53 77 82 29 42 -90 -76 -148 -118 -231 -167
-46 -27 -77 -50 -69 -50 8 1 26 7 40 15 14 8 36 14 50 15 14 0 50 16 80 35 63
40 75 43 60 15 -6 -11 -21 -20 -33 -20 -12 0 -28 -9 -35 -20 -7 -11 -19 -20
-27 -20 -9 0 -56 -20 -105 -45 -99 -50 -130 -56 -130 -26 0 18 36 181 61 281
7 25 15 68 20 95 28 176 101 524 115 546 8 13 61 11 132 -6z"/>
<path d="M12030 5449 c-41 -3 -135 -4 -209 -1 -289 9 -551 -48 -551 -119 0
-12 -13 -41 -30 -66 -28 -41 -42 -102 -20 -88 5 3 19 1 30 -5 16 -8 20 -21 20
-57 0 -45 0 -45 29 -40 19 4 33 1 41 -8 7 -8 22 -15 33 -15 20 0 20 -1 -3 -17
-35 -24 -40 -34 -27 -55 14 -21 26 -22 62 -6 18 8 25 17 22 30 -8 29 30 45
123 52 109 9 125 13 109 32 -9 11 -8 15 2 18 35 11 97 15 155 9 52 -5 64 -9
64 -24 0 -56 -109 -241 -276 -470 -70 -96 -128 -181 -129 -190 -1 -16 -103
-169 -154 -231 -13 -16 -49 -42 -80 -57 -76 -39 -150 -114 -193 -198 -37 -71
-47 -138 -22 -147 16 -6 44 -64 44 -92 0 -30 33 -40 62 -20 12 9 37 16 55 16
21 0 49 11 75 30 22 17 49 30 58 30 10 0 33 18 51 40 93 111 112 129 158 149
50 21 183 44 326 56 141 12 484 -36 731 -101 182 -48 189 -49 180 -35 -4 6
-14 11 -22 11 -8 0 -14 7 -14 16 0 8 -13 20 -30 25 -16 6 -30 15 -30 21 0 6 8
7 18 3 35 -15 52 -17 52 -7 0 13 -18 26 -60 42 -46 17 -52 23 -44 44 4 11 14
16 25 13 12 -3 19 0 19 8 0 7 -15 17 -32 20 -33 7 -78 40 -78 57 0 5 10 6 22
2 20 -6 21 -5 10 9 -21 25 -248 94 -391 118 -30 6 -59 13 -65 17 -6 4 -102 9
-214 12 l-204 5 96 122 c197 252 333 468 376 599 26 78 36 95 55 100 39 10 49
29 35 63 -6 17 -12 46 -13 65 0 19 -4 33 -8 30 -16 -9 -39 10 -49 41 -6 19
-20 37 -31 40 -10 4 -27 21 -36 38 -35 70 -41 73 -123 66z"/>
<path d="M9429 5202 c-148 -124 -227 -226 -267 -347 -39 -117 -92 -410 -92
-510 l0 -93 -27 -6 c-82 -15 -113 -17 -113 -7 0 8 -18 9 -54 5 -30 -4 -56 -2
-59 3 -13 21 16 204 48 308 50 159 58 205 45 254 -8 30 -16 41 -30 41 -21 0
-35 46 -25 82 6 22 6 22 -9 4 -9 -11 -16 -26 -16 -34 0 -10 -7 -12 -24 -8 -14
3 -28 1 -31 -4 -9 -15 -25 -2 -25 21 0 10 -7 19 -15 19 -16 0 -39 36 -31 48 3
4 1 14 -5 22 -7 12 -9 12 -9 -3 0 -10 -7 -20 -15 -23 -8 -4 -15 -14 -15 -24 0
-22 -22 -39 -28 -21 -3 9 -10 7 -24 -6 -19 -17 -20 -17 -33 0 -11 16 -14 14
-29 -17 -9 -19 -16 -43 -16 -54 0 -11 -5 -22 -12 -24 -7 -3 -12 -34 -13 -84
-2 -43 -10 -115 -18 -159 -9 -44 -15 -91 -14 -105 2 -20 -9 -30 -62 -62 -64
-37 -159 -65 -186 -54 -12 4 -13 11 -5 31 12 33 12 35 0 35 -5 0 -13 -12 -16
-27 -10 -39 -22 -44 -60 -25 -44 22 -49 40 -29 110 43 146 141 341 216 426 48
54 136 100 179 94 46 -7 46 9 1 17 -54 9 -107 -2 -170 -37 -32 -18 -56 -26
-60 -20 -3 6 -34 -23 -69 -64 -35 -41 -68 -74 -73 -74 -6 0 -7 -6 -3 -12 4 -7
4 -10 -1 -6 -4 4 -14 3 -22 -3 -10 -9 -13 -8 -13 0 0 22 -19 1 -85 -91 -49
-69 -71 -110 -90 -173 -14 -46 -25 -90 -25 -99 0 -9 -5 -16 -11 -16 -11 0 -10
22 7 110 2 15 -4 8 -18 -20 -28 -56 -27 -122 1 -178 11 -22 18 -47 15 -55 -3
-8 4 -33 16 -56 21 -43 18 -47 -24 -31 -21 8 -28 5 -43 -13 -10 -13 -25 -27
-33 -32 -12 -7 -11 -3 3 18 9 14 17 29 17 31 0 3 -17 8 -37 11 -21 4 -57 13
-79 21 -40 14 -41 16 -34 47 4 18 12 42 18 54 14 26 16 67 3 59 -15 -10 -18
15 -9 64 5 25 10 131 10 235 1 183 1 192 -23 235 -24 44 -25 45 -81 48 -49 3
-56 1 -54 -15 1 -15 -5 -17 -32 -15 -19 2 -44 -4 -58 -13 -15 -9 -33 -13 -45
-10 -25 8 -136 -35 -119 -45 8 -5 6 -9 -6 -14 -20 -8 -51 24 -87 87 -16 28
-38 46 -90 72 -37 19 -84 37 -102 41 -48 9 -119 -18 -201 -74 -68 -47 -69 -48
-67 -90 3 -66 15 -76 93 -68 95 10 103 9 123 -15 16 -20 17 -35 11 -118 -4
-53 -11 -101 -16 -108 -5 -6 -8 -17 -7 -25 1 -7 -6 -31 -16 -53 -10 -22 -19
-57 -19 -77 -1 -21 -9 -47 -18 -58 -11 -12 -18 -37 -18 -59 0 -49 -21 -71 -66
-71 -23 0 -67 -17 -128 -50 -75 -41 -95 -48 -99 -35 -5 13 -13 12 -54 -6 -60
-26 -103 -28 -137 -5 -24 15 -27 22 -24 69 3 43 7 54 28 64 14 7 24 17 23 22
-2 6 18 25 43 43 l46 33 -32 8 c-20 5 -44 4 -63 -2 -16 -6 -34 -11 -38 -11
-11 0 -10 58 0 85 5 11 6 27 2 35 -4 10 -8 5 -13 -15 -4 -18 -5 -9 -2 24 3 30
12 70 20 90 9 20 18 47 20 60 3 13 9 32 14 42 12 22 12 29 2 29 -11 0 -102
-193 -102 -216 -1 -36 -30 -158 -40 -168 -12 -11 -9 21 12 174 10 77 30 129
54 143 8 4 14 13 14 20 0 16 46 101 87 161 34 50 40 66 24 66 -10 0 -94 -144
-106 -180 -3 -11 -11 -20 -16 -20 -5 0 -5 7 1 18 20 35 39 92 31 92 -5 0 -11
-7 -15 -15 -3 -8 -11 -15 -17 -15 -8 0 -8 4 -1 13 5 6 17 29 25 49 l16 38 -35
16 c-19 9 -38 14 -41 10 -3 -3 -13 3 -20 14 -8 12 -32 28 -54 37 -21 8 -39 22
-39 30 0 13 12 15 76 10 91 -8 96 -10 84 -42 -5 -14 -6 -25 -1 -25 16 0 41 37
41 61 0 21 -7 27 -45 37 -25 7 -54 12 -64 12 -11 0 -32 5 -47 10 -46 18 -221
21 -294 6 -78 -17 -205 -77 -220 -105 -8 -16 -20 -19 -64 -18 -63 1 -105 -25
-161 -101 -167 -227 -138 -595 57 -732 65 -46 104 -61 94 -35 -5 15 -1 16 41
11 51 -6 227 6 254 18 19 8 79 -38 79 -60 0 -18 52 -66 128 -117 41 -28 62
-36 76 -31 12 4 53 8 91 9 209 6 253 14 375 73 63 30 122 61 132 69 14 13 17
10 28 -24 7 -21 21 -46 31 -56 11 -10 19 -26 19 -36 0 -11 7 -22 16 -25 13 -5
15 0 9 33 -7 40 9 93 18 61 24 -81 44 -132 52 -133 6 -1 11 30 13 71 3 78 15
90 40 39 15 -30 30 -35 38 -12 4 8 9 13 13 10 11 -6 31 87 37 165 8 110 52
275 100 376 9 18 39 46 74 68 33 21 60 41 60 45 0 12 60 10 60 -2 0 -7 -25
-140 -57 -297 l-57 -285 38 -52 c20 -29 45 -54 54 -57 59 -16 92 -15 147 4 70
24 71 24 50 4 -9 -9 -14 -18 -12 -20 7 -7 96 27 108 42 6 8 20 14 31 14 11 0
43 16 71 35 82 55 96 70 91 92 -4 15 3 23 36 36 40 15 42 15 89 -10 50 -26 57
-26 211 -20 143 6 148 7 162 21 8 7 24 17 36 21 23 7 23 5 19 -60 -3 -36 -6
-67 -8 -69 -2 -2 -38 -18 -79 -36 -77 -35 -130 -74 -130 -97 0 -7 -18 -25 -40
-39 -46 -31 -136 -145 -174 -222 -47 -93 -86 -225 -86 -288 1 -79 32 -235 54
-269 26 -39 43 -19 28 33 -12 41 -4 144 19 247 16 68 64 157 118 217 45 51
216 178 238 178 27 0 11 -34 -45 -98 -98 -112 -182 -277 -182 -357 0 -18 -5
-37 -11 -40 -13 -9 -3 -234 13 -288 8 -25 21 -43 40 -53 15 -8 28 -21 28 -29
0 -27 97 14 139 59 14 14 34 26 46 26 56 0 106 104 199 410 30 96 63 219 75
272 12 53 28 101 35 107 7 6 69 31 137 55 68 24 140 51 159 60 l35 15 -44 1
c-58 0 -47 9 66 54 l93 37 29 -22 c22 -16 46 -22 98 -24 60 -2 75 1 127 28 32
17 68 31 80 32 11 0 21 6 21 13 0 7 43 43 95 80 54 38 142 116 204 180 60 61
107 112 104 112 -2 0 -38 -11 -78 -25 -40 -14 -84 -25 -98 -25 -13 0 -40 -13
-59 -30 -18 -16 -40 -30 -49 -30 -8 0 -32 -12 -54 -26 -30 -20 -48 -25 -77
-22 -30 4 -48 -2 -90 -29 -50 -31 -83 -42 -83 -25 0 4 17 17 38 29 l37 22 -37
1 c-56 0 -50 27 17 70 30 19 55 38 55 41 0 20 -36 15 -78 -12 l-47 -30 -3 45
c-2 25 2 69 7 98 6 29 16 80 22 113 17 98 38 161 62 183 12 11 58 56 102 100
93 93 108 102 169 102 60 0 95 -30 74 -62 -26 -39 -203 -120 -266 -123 -20 0
-37 -6 -39 -12 -3 -7 13 -9 48 -7 l51 4 -46 -25 c-26 -14 -56 -25 -66 -25 -13
0 -22 -11 -29 -37 -19 -68 -15 -77 56 -132 76 -58 107 -63 204 -35 91 27 259
114 300 156 41 42 75 128 85 214 6 45 3 54 -30 101 -20 29 -36 57 -36 62 0 5
-8 23 -17 40 -13 22 -26 31 -43 31 -17 0 -42 16 -74 49 -47 48 -51 50 -115 54
-36 2 -102 14 -146 25 -106 28 -126 27 -166 -6z m-3235 -283 c-15 -15 -30 -27
-33 -26 -3 1 -18 -10 -33 -24 -20 -19 -24 -29 -16 -37 7 -7 2 -31 -20 -84 -16
-40 -38 -107 -47 -148 -10 -41 -20 -82 -22 -90 -3 -8 -7 -50 -9 -93 -6 -108
-19 -135 -58 -128 -5 1 -36 -8 -70 -20 -78 -28 -108 -22 -131 27 -30 64 -29
102 3 207 34 107 57 151 100 188 38 33 84 97 78 108 -7 11 67 80 123 115 26
17 55 26 80 26 22 0 42 4 46 10 3 5 13 6 21 3 12 -5 10 -11 -12 -34z m2246
-1286 c0 -4 -9 -39 -20 -78 -11 -40 -22 -103 -24 -141 -2 -48 -12 -87 -31
-129 -15 -33 -31 -76 -36 -95 -10 -48 -38 -122 -51 -138 -17 -20 -51 -10 -59
18 -4 14 -7 60 -8 103 -1 42 -5 77 -10 77 -34 0 -11 136 37 214 38 63 119 152
129 142 3 -3 17 4 31 14 25 20 42 25 42 13z"/>
<path d="M15299 5202 c-83 -68 -188 -182 -216 -232 -45 -79 -67 -151 -108
-355 -32 -159 -36 -194 -33 -298 2 -90 0 -116 -9 -112 -7 2 -23 -9 -35 -25
-12 -17 -26 -30 -31 -30 -6 0 -3 8 6 18 26 28 20 41 -20 47 -112 18 -131 44
-94 125 17 39 18 45 5 48 -13 3 -14 18 -7 100 4 54 8 165 7 247 -1 139 -3 153
-25 195 -23 43 -27 45 -76 50 -47 5 -53 3 -55 -15 -2 -16 -9 -19 -36 -17 -19
2 -44 -4 -58 -12 -13 -10 -34 -14 -47 -11 -25 7 -120 -31 -112 -45 3 -4 -3
-11 -12 -14 -19 -8 -39 12 -77 76 -21 36 -41 53 -94 81 -90 47 -131 54 -190
32 -82 -31 -223 -135 -183 -135 4 0 6 -11 4 -24 -9 -43 13 -66 60 -66 23 0 56
4 72 9 39 11 72 -2 86 -33 13 -27 -4 -239 -19 -260 -16 -20 -41 -106 -36 -121
3 -8 -3 -27 -14 -42 -10 -15 -22 -50 -24 -78 -3 -27 -12 -89 -19 -137 -12 -78
-11 -93 4 -142 10 -30 24 -57 32 -60 8 -3 15 -16 15 -30 0 -13 7 -27 16 -30
14 -5 16 -1 11 31 -3 21 -2 46 2 56 10 27 27 3 35 -52 16 -103 46 -107 46 -6
0 57 3 75 14 75 7 0 19 -13 26 -30 15 -35 40 -40 40 -7 0 15 3 18 9 9 11 -18
37 86 40 158 5 112 74 352 115 399 27 30 118 89 151 97 21 5 25 3 25 -17 0
-12 -25 -147 -56 -299 l-56 -277 37 -49 c21 -27 38 -50 39 -51 2 -2 27 -7 56
-13 45 -9 61 -7 107 10 67 25 71 25 47 -1 -19 -22 -19 -22 6 -15 14 4 47 18
73 32 27 13 55 24 62 24 7 0 46 24 86 54 82 60 70 62 129 -21 43 -61 70 -75
148 -78 59 -2 74 1 126 28 32 17 68 31 80 32 11 0 21 6 21 13 0 7 43 43 95 80
54 38 142 116 204 180 60 61 107 112 104 112 -2 0 -38 -11 -78 -25 -40 -14
-85 -25 -99 -25 -14 -1 -42 -14 -61 -30 -19 -17 -41 -30 -49 -30 -8 0 -32 -12
-53 -26 -29 -20 -46 -25 -75 -22 -31 4 -48 -2 -97 -34 -55 -35 -83 -41 -73
-14 3 6 -1 20 -9 31 -16 22 -19 164 -4 235 6 25 17 83 25 130 19 102 48 166
84 184 14 8 51 42 80 76 69 79 103 100 164 100 83 0 108 -52 45 -92 -56 -34
-195 -90 -232 -92 -22 -1 -41 -7 -43 -13 -3 -7 15 -10 49 -8 48 3 50 2 23 -7
-16 -6 -36 -17 -43 -25 -7 -7 -24 -13 -37 -13 -17 0 -26 -8 -34 -31 -23 -66
-16 -82 56 -138 76 -58 104 -63 201 -35 90 25 262 115 304 157 40 41 75 129
84 213 5 42 2 54 -20 84 -14 19 -31 46 -37 60 -38 82 -44 90 -68 90 -17 0 -42
16 -73 47 -46 45 -53 48 -116 54 -37 4 -103 16 -147 28 -106 27 -126 26 -166
-7z"/>
<path d="M6423 5190 c-40 -16 -26 -62 22 -72 14 -3 19 -11 18 -27 -5 -36 14
-59 59 -73 40 -12 41 -12 69 22 35 41 35 48 6 91 -18 26 -32 35 -62 40 -22 3
-50 10 -62 17 -12 7 -23 12 -25 11 -2 0 -13 -4 -25 -9z"/>
<path d="M10785 5050 c-16 -16 -44 -33 -63 -36 -28 -5 -33 -10 -28 -27 5 -22
-96 -207 -114 -207 -6 0 -10 36 -10 83 0 69 -3 87 -18 100 -10 10 -23 17 -28
17 -5 0 -23 13 -41 30 l-31 30 -51 -22 c-28 -11 -51 -24 -51 -28 0 -10 -36
-50 -44 -50 -4 0 -4 5 -1 10 3 6 2 10 -4 10 -17 0 -23 -20 -11 -35 7 -9 8 -15
2 -15 -18 0 -20 -26 -6 -81 8 -30 14 -76 13 -104 -1 -62 -44 -296 -71 -387
-11 -37 -18 -75 -15 -85 3 -13 5 -11 6 7 1 14 9 34 17 45 15 19 16 18 9 -20
-4 -22 -10 -44 -15 -50 -4 -5 -11 -32 -15 -60 -4 -27 -13 -61 -20 -75 -22 -44
-29 -108 -12 -125 12 -11 17 -12 24 -2 17 22 147 379 183 505 20 68 41 122 46
120 5 -2 8 -5 8 -8 -38 -154 -106 -392 -136 -475 -21 -60 -40 -114 -41 -120
-1 -5 -5 -12 -8 -15 -4 -3 -3 -14 1 -25 6 -17 13 -9 40 45 25 51 30 57 25 30
-11 -53 -11 -69 0 -72 6 -1 15 14 22 35 13 40 48 121 63 149 6 10 10 31 10 47
0 16 6 34 14 40 8 6 17 33 21 59 4 26 11 52 17 59 5 7 8 18 5 25 -2 7 4 30 14
50 11 21 20 45 22 56 8 54 77 123 77 76 0 -20 27 -48 32 -33 2 6 19 12 37 14
36 2 54 16 91 69 14 19 31 34 37 31 7 -2 29 22 50 53 20 31 44 65 54 74 9 9
19 22 21 28 2 8 11 8 33 0 21 -8 31 -8 33 -1 2 6 12 11 22 11 22 0 45 59 42
105 -4 47 -24 118 -38 135 -8 9 -32 16 -59 18 -25 1 -54 6 -65 12 -33 18 -65
11 -95 -20z"/>
<path d="M13206 5053 c-17 -7 -50 -17 -74 -23 -24 -6 -51 -19 -60 -28 -10 -9
-47 -40 -83 -69 -36 -28 -85 -73 -108 -98 -24 -26 -45 -45 -47 -42 -2 2 7 28
20 58 23 51 96 133 141 157 11 6 15 12 9 12 -27 0 -137 -108 -189 -188 -31
-49 -82 -203 -99 -305 -14 -81 -15 -235 -1 -257 4 -7 9 -42 10 -78 4 -71 28
-133 65 -167 16 -14 23 -16 29 -7 10 16 33 8 91 -32 44 -31 47 -31 163 -30
l118 2 71 47 c98 65 162 127 205 199 20 34 46 72 58 86 12 14 31 40 41 58 10
17 23 32 29 32 22 0 53 57 89 162 39 114 45 168 21 188 -8 7 -15 18 -15 26 0
26 -42 125 -63 149 -27 30 -83 39 -81 13 2 -26 -17 -11 -76 60 -35 40 -61 62
-75 62 -11 0 -25 4 -30 9 -16 15 -124 17 -159 4z m124 -292 c7 -14 7 -22 0
-26 -6 -4 -8 -10 -5 -15 3 -5 -4 -14 -15 -20 -16 -9 -18 -15 -10 -30 15 -29
13 -32 -22 -25 -33 7 -33 7 -10 -10 12 -9 22 -22 22 -30 0 -8 7 -18 16 -23 15
-8 15 -14 0 -70 -20 -77 -43 -125 -93 -184 -72 -87 -154 -138 -174 -107 -33
53 -10 225 32 236 10 3 19 11 19 18 0 7 23 58 50 113 43 85 59 108 108 146 31
25 60 46 64 46 4 0 12 -9 18 -19z"/>
</g>
</svg>
