<svg width="20" height="22" viewBox="0 0 20 22" fill="none" xmlns="http://www.w3.org/2000/svg">
<path d="M8.51701 0.0769196C8.47901 0.14892 8.63101 0.47292 8.87168 0.80892C9.60634 1.84092 9.87234 2.64492 9.93568 4.07292C9.99901 5.72892 9.75834 6.64092 8.44101 9.58092C7.32635 12.1009 7.11101 12.9649 7.21235 14.4889C7.32635 16.1089 7.95968 17.5129 9.31501 19.1329C9.96101 19.9009 10.151 19.8049 9.66968 18.9649C8.96034 17.7169 8.77034 16.1209 9.15034 14.4049C9.26434 13.9009 9.73301 12.4849 10.2143 11.2609C11.1137 8.93292 11.3543 8.22492 11.3543 7.85292C11.3543 7.67292 11.3163 7.66092 11.1643 7.78092C11.063 7.86492 10.9743 8.03292 10.9743 8.15292C10.9743 8.51292 10.683 9.46092 10.569 9.46092C10.5183 9.46092 10.4677 9.56892 10.4677 9.70092C10.4677 9.83292 10.417 10.0369 10.3537 10.1569C9.94834 10.8529 9.03634 13.4329 8.87168 14.3329C8.68168 15.3769 8.68168 17.1649 8.88434 17.8609C9.03634 18.4129 8.25101 17.1169 7.97235 16.3609C7.46568 15.0049 7.37701 14.2129 7.59235 12.9289C7.78235 11.8129 7.89635 11.4889 8.88434 9.34092C10.379 6.10092 10.6577 4.39692 10.0243 2.40492C9.97368 2.26092 9.98634 2.14092 10.037 2.14092C10.2777 2.14092 10.9617 4.14492 11.101 5.20092C11.2277 6.12492 11.3163 6.37692 11.7343 7.01292C12.0003 7.40892 12.2917 7.98492 12.3677 8.27292C12.4563 8.56092 12.5703 8.90892 12.621 9.04092C12.6843 9.17292 12.7603 9.60492 12.7983 10.0009C12.9123 11.0929 12.431 12.7969 11.405 14.9449C11.2403 15.2929 11.0377 15.8209 10.9617 16.1209C10.8857 16.4209 10.7717 16.6249 10.7083 16.5889C10.645 16.5529 10.5943 16.5649 10.607 16.6249C10.6703 16.8649 10.4297 18.0889 10.3283 18.0289C10.151 17.9329 10.2017 16.0849 10.3917 15.2809C10.607 14.4049 10.9237 13.5169 11.2403 12.8809C12.1523 11.0089 12.4057 8.39292 11.747 7.67292C11.5063 7.40892 11.2277 7.31292 11.4557 7.56492C11.6837 7.84092 11.8483 9.55692 11.7217 10.3249C11.6583 10.7089 11.291 11.8489 10.8983 12.8449C9.84701 15.5809 9.63168 16.7209 9.96101 17.9209C10.303 19.1329 10.835 19.7449 10.7463 18.8089C10.6703 17.9329 10.9997 16.7329 11.861 14.6929C12.355 13.5529 12.849 12.2089 12.9503 11.7289C13.3177 10.1089 12.9503 8.21292 12.0383 6.91692C11.6837 6.43692 11.5697 6.11292 11.481 5.41692C11.2403 3.64092 10.5057 1.98492 9.39101 0.70092C8.78301 0.00491958 8.63101 -0.10308 8.51701 0.0769196Z" fill="black"/>
<path d="M8.66901 4.16891C7.17434 4.62491 6.05968 5.52491 5.41368 6.79691L5.07168 7.48091L4.32434 7.50491C2.84234 7.55291 1.20834 8.66891 0.511675 10.1089C-0.754992 12.7489 0.397675 15.3889 3.22234 16.2409C3.57701 16.3609 3.88101 16.4929 3.88101 16.5529C3.88101 16.6249 3.76701 17.4049 3.61501 18.2929L3.34901 19.9249L3.76701 20.3329C4.23568 20.7889 4.97034 21.0889 6.47768 21.4129C7.31368 21.6049 7.98501 21.6409 10.341 21.6409C13.343 21.6289 14.3437 21.4849 14.3183 21.0769C14.3057 20.9569 14.5083 20.8489 14.9137 20.7529C15.2937 20.6569 15.7243 20.4289 16.041 20.1649L16.5477 19.7209L16.2943 18.2209C16.155 17.3929 16.041 16.6609 16.041 16.5889C16.041 16.5049 16.345 16.3609 16.7123 16.2409C17.5483 15.9889 18.587 15.3529 19.005 14.8249C20.4617 13.0129 20.1577 10.3129 18.2957 8.66891C17.4723 7.93691 16.4717 7.51691 15.5217 7.49291C15.1163 7.49291 14.7743 7.43291 14.7743 7.37291C14.7743 7.12091 14.0777 5.99291 13.6597 5.57291C13.229 5.15291 11.9877 4.30091 11.785 4.30091C11.5697 4.30091 11.937 5.00891 12.431 5.52491C13.039 6.17291 13.457 7.08491 13.6723 8.23691C13.7863 8.83691 13.8497 8.96891 14.0143 8.90891C14.483 8.70491 15.8003 8.71691 16.3577 8.92091C17.6497 9.37691 18.5743 10.7809 18.5743 12.2449C18.5743 13.9369 17.3203 15.0649 15.1923 15.3049C14.825 15.3409 14.521 15.3889 14.521 15.4129C14.521 15.4369 14.6603 16.3609 14.8377 17.4649L15.167 19.4809L14.901 19.6849C14.0397 20.3449 10.2143 20.3809 6.89568 19.7569C6.80701 19.7329 6.73101 19.8049 6.73101 19.9009C6.73101 20.1529 7.94701 20.5849 9.32768 20.8129C10.1383 20.9449 11.0503 20.9809 12.3043 20.9569C14.3437 20.9209 14.4577 21.0769 12.4563 21.1849C9.78368 21.3289 6.00901 20.6809 4.99568 19.9129L4.71701 19.6969L4.99568 17.9089C5.16034 16.9249 5.31234 15.9529 5.35034 15.7609L5.41368 15.4009L4.53968 15.2689C3.00701 15.0409 1.82901 14.2489 1.46168 13.2169C1.24634 12.5929 1.37301 11.2969 1.70234 10.6489C2.06968 9.91691 2.90568 9.14891 3.57701 8.90891C4.10901 8.71691 5.45168 8.71691 5.90768 8.90891C6.05968 8.96891 6.14834 8.78891 6.31301 8.00891C6.43968 7.46891 6.69301 6.72491 6.88301 6.36491C7.30101 5.58491 8.23834 4.75691 9.01101 4.46891C9.32768 4.36091 9.58101 4.19291 9.58101 4.10891C9.58101 3.90491 9.55568 3.90491 8.66901 4.16891ZM7.14901 5.46491C6.97168 5.65691 6.70568 6.01691 6.56634 6.28091C6.31301 6.76091 5.86968 8.06891 5.86968 8.33291C5.86968 8.42891 5.55301 8.45291 4.89434 8.44091C4.07101 8.40491 3.83034 8.45291 3.29834 8.70491C2.17101 9.24491 1.52501 10.0009 1.14501 11.2009C0.765008 12.4729 1.11967 13.7689 2.09501 14.5849C2.71568 15.1249 3.79234 15.5809 4.43834 15.5809C5.04634 15.5929 5.05901 15.6769 4.78034 17.3329C4.33701 19.8409 4.34968 19.6849 4.66634 20.0209C4.94501 20.3089 5.85701 20.7529 6.51568 20.9209C6.68034 20.9689 6.78168 21.0289 6.74368 21.0649C6.65501 21.1489 5.13501 20.7769 4.69168 20.5609C3.77968 20.1409 3.65301 19.8529 3.86834 18.7489C3.93168 18.4249 4.02034 17.9209 4.07101 17.6209C4.10901 17.3209 4.17234 16.9369 4.21034 16.7689C4.28634 16.3969 4.02034 16.1449 3.31101 15.9409C2.53834 15.7129 1.81634 15.2929 1.30968 14.7529C0.600342 14.0089 0.435675 13.5289 0.410342 12.2209C0.397675 11.1769 0.435675 11.0089 0.790342 10.3009C1.51234 8.87291 2.85501 7.92491 4.28634 7.85291C4.69168 7.82891 5.10968 7.73291 5.22368 7.64891C5.33768 7.56491 5.59101 7.18091 5.79368 6.79691C5.99634 6.41291 6.40168 5.88491 6.68034 5.62091C7.26301 5.08091 7.65568 4.96091 7.14901 5.46491ZM13.533 5.92091C13.7357 6.11291 14.0397 6.55691 14.2043 6.88091C14.3563 7.21691 14.5717 7.55291 14.6603 7.62491C14.7617 7.69691 15.1923 7.79291 15.6357 7.82891C17.0923 7.96091 18.207 8.70491 19.005 10.0729C19.5877 11.0809 19.7397 12.4369 19.385 13.5049C19.0557 14.4769 18.0423 15.4369 16.9277 15.8209C15.585 16.2769 15.6103 16.2289 15.9143 18.1009C16.1677 19.6129 16.155 19.6849 15.8003 19.9609C15.623 20.1049 15.1163 20.3449 14.6857 20.4889C14.0143 20.7169 13.6597 20.7529 12.1903 20.7289C11.2403 20.7289 10.4423 20.6689 10.4043 20.6209C10.3663 20.5609 10.9237 20.5369 11.633 20.5489C13.0897 20.5729 14.1283 20.4169 14.863 20.0569L15.3443 19.8169L15.3317 19.0489C15.3317 18.6289 15.2303 17.7169 15.1163 17.0329C15.0023 16.3369 14.9263 15.7489 14.9517 15.7249C14.9897 15.7009 15.395 15.5929 15.8763 15.4969C17.903 15.0649 19.081 13.6969 18.929 11.9449C18.8023 10.5049 17.8017 9.16091 16.4463 8.60891C15.9903 8.41691 15.6483 8.36891 14.977 8.40491L14.0903 8.44091L13.875 7.66091C13.5963 6.61691 13.457 6.30491 12.9757 5.64491C12.6463 5.17691 12.621 5.11691 12.8743 5.32091C13.039 5.45291 13.343 5.71691 13.533 5.92091ZM7.46568 21.1849C7.37701 21.2089 7.19968 21.2089 7.08568 21.1849C6.95901 21.1489 7.03501 21.1249 7.23768 21.1249C7.45301 21.1249 7.54168 21.1489 7.46568 21.1849Z" fill="black"/>
</svg>
