<?xml version="1.0" standalone="no"?>
<!DOCTYPE svg PUBLIC "-//W3C//DTD SVG 20010904//EN"
 "http://www.w3.org/TR/2001/REC-SVG-20010904/DTD/svg10.dtd">
<svg version="1.0" xmlns="http://www.w3.org/2000/svg"
 width="300.000000pt" height="300.000000pt" viewBox="0 0 300.000000 300.000000"
 preserveAspectRatio="xMidYMid meet">
<metadata>
Created by potrace 1.10, written by Peter Selinger 2001-2011
</metadata>
<g transform="translate(0.000000,300.000000) scale(0.100000,-0.100000)"
fill="#000000" stroke="none">
<path d="M1406 2792 c-3 -6 9 -33 28 -61 58 -86 79 -153 84 -272 5 -138 -14
-214 -118 -459 -88 -210 -105 -282 -97 -409 9 -135 59 -252 166 -387 51 -64
66 -56 28 14 -56 104 -71 237 -41 380 9 42 46 160 84 262 71 194 90 253 90
284 0 15 -3 16 -15 6 -8 -7 -15 -21 -15 -31 0 -30 -23 -109 -32 -109 -4 0 -8
-9 -8 -20 0 -11 -4 -28 -9 -38 -32 -58 -104 -273 -117 -348 -15 -87 -15 -236
1 -294 12 -46 -50 62 -72 125 -40 113 -47 179 -30 286 15 93 24 120 102 299
118 270 140 412 90 578 -4 12 -3 22 1 22 19 0 73 -167 84 -255 10 -77 17 -98
50 -151 21 -33 44 -81 50 -105 7 -24 16 -53 20 -64 5 -11 11 -47 14 -80 9 -91
-29 -233 -110 -412 -13 -29 -29 -73 -35 -98 -6 -25 -15 -42 -20 -39 -5 3 -9 2
-8 -3 5 -20 -14 -122 -22 -117 -14 8 -10 162 5 229 17 73 42 147 67 200 72
156 92 374 40 434 -19 22 -41 30 -23 9 18 -23 31 -166 21 -230 -5 -32 -34
-127 -65 -210 -83 -228 -100 -323 -74 -423 27 -101 69 -152 62 -74 -6 73 20
173 88 343 39 95 78 207 86 247 29 135 0 293 -72 401 -28 40 -37 67 -44 125
-19 148 -77 286 -165 393 -48 58 -60 67 -69 52z"/>
<path d="M1418 2451 c-118 -38 -206 -113 -257 -219 l-27 -57 -59 -2 c-117 -4
-246 -97 -301 -217 -100 -220 -9 -440 214 -511 28 -10 52 -21 52 -26 0 -6 -9
-71 -21 -145 l-21 -136 33 -34 c37 -38 95 -63 214 -90 66 -16 119 -19 305 -19
237 1 316 13 314 47 -1 10 15 19 47 27 30 8 64 27 89 49 l40 37 -20 125 c-11
69 -20 130 -20 136 0 7 24 19 53 29 66 21 148 74 181 118 115 151 91 376 -56
513 -65 61 -144 96 -219 98 -32 0 -59 5 -59 10 0 21 -55 115 -88 150 -34 35
-132 106 -148 106 -17 0 12 -59 51 -102 48 -54 81 -130 98 -226 9 -50 14 -61
27 -56 37 17 141 16 185 -1 102 -38 175 -155 175 -277 0 -141 -99 -235 -267
-255 -29 -3 -53 -7 -53 -9 0 -2 11 -79 25 -171 l26 -168 -21 -17 c-68 -55
-370 -58 -632 -6 -7 2 -13 -4 -13 -12 0 -21 96 -57 205 -76 64 -11 136 -14
235 -12 161 3 170 -10 12 -19 -211 -12 -509 42 -589 106 l-22 18 22 149 c13
82 25 163 28 179 l5 30 -69 11 c-121 19 -214 85 -243 171 -17 52 -7 160 19
214 29 61 95 125 148 145 42 16 148 16 184 0 12 -5 19 10 32 75 10 45 30 107
45 137 33 65 107 134 168 158 25 9 45 23 45 30 0 17 -2 17 -72 -5z m-120 -108
c-14 -16 -35 -46 -46 -68 -20 -40 -55 -149 -55 -171 0 -8 -25 -10 -77 -9 -65
3 -84 -1 -126 -22 -89 -45 -140 -108 -170 -208 -30 -106 -2 -214 75 -282 49
-45 134 -83 185 -83 48 -1 49 -8 27 -146 -35 -209 -34 -196 -9 -224 22 -24 94
-61 146 -75 13 -4 21 -9 18 -12 -7 -7 -127 24 -162 42 -72 35 -82 59 -65 151
5 27 12 69 16 94 3 25 8 57 11 71 6 31 -15 52 -71 69 -61 19 -118 54 -158 99
-56 62 -69 102 -71 211 -1 87 2 101 30 160 57 119 163 198 276 204 32 2 65 10
74 17 9 7 29 39 45 71 16 32 48 76 70 98 46 45 77 55 37 13z m504 -38 c16 -16
40 -53 53 -80 12 -28 29 -56 36 -62 8 -6 42 -14 77 -17 115 -11 203 -73 266
-187 46 -84 58 -197 30 -286 -26 -81 -106 -161 -194 -193 -106 -38 -104 -34
-80 -190 20 -126 19 -132 -9 -155 -14 -12 -54 -32 -88 -44 -53 -19 -81 -22
-197 -20 -75 0 -138 5 -141 9 -3 5 41 7 97 6 115 -2 197 11 255 41 l38 20 -1
64 c0 35 -8 111 -17 168 -9 58 -15 107 -13 109 3 2 35 11 73 19 160 36 253
150 241 296 -10 120 -89 232 -196 278 -36 16 -63 20 -116 17 l-70 -3 -17 65
c-22 87 -33 113 -71 168 -26 39 -28 44 -8 27 13 -11 37 -33 52 -50z m-479
-1272 c-7 -2 -21 -2 -30 0 -10 3 -4 5 12 5 17 0 24 -2 18 -5z"/>
<path d="M671 852 c0 -7 -5 -11 -9 -8 -5 3 -20 -6 -35 -19 -24 -20 -26 -25
-13 -38 15 -15 13 -33 -14 -119 -5 -16 -4 -30 1 -34 5 -3 9 0 9 7 0 7 3 9 7 6
12 -13 -36 -49 -57 -42 -29 9 -24 -4 6 -15 19 -8 24 -15 19 -30 -3 -11 -4 -20
-2 -20 8 0 75 69 70 73 -2 3 3 7 12 11 9 3 13 2 10 -4 -7 -12 8 -14 19 -2 4 4
12 8 17 8 5 1 13 2 19 3 15 2 41 47 50 87 11 46 -17 88 -66 104 -18 6 -35 19
-37 28 -3 9 -5 11 -6 4z m-1 -51 c0 -6 -4 -13 -10 -16 -5 -3 -10 1 -10 9 0 9
5 16 10 16 6 0 10 -4 10 -9z m70 -67 c0 -23 -30 -75 -39 -70 -5 3 -16 -3 -26
-14 -10 -11 -21 -20 -25 -20 -6 0 12 100 25 138 6 18 65 -13 65 -34z m-113
-56 c-3 -8 -6 -5 -6 6 -1 11 2 17 5 13 3 -3 4 -12 1 -19z"/>
<path d="M1710 813 c-23 -9 -29 -24 -18 -48 9 -21 12 -22 37 -9 31 17 51 18
51 3 0 -15 -57 -96 -97 -140 -22 -23 -32 -41 -27 -52 8 -22 14 -22 54 8 37 27
84 32 155 15 48 -11 55 -6 29 21 -14 13 -40 22 -77 26 l-57 6 23 31 c13 17 32
47 43 66 19 32 19 38 6 58 -12 18 -24 22 -61 21 -25 0 -53 -3 -61 -6z m100
-33 c0 -5 -2 -10 -4 -10 -3 0 -8 5 -11 10 -3 6 -1 10 4 10 6 0 11 -4 11 -10z"/>
<path d="M1395 758 c-15 -18 -27 -48 -31 -78 -5 -40 -10 -48 -26 -47 -17 1
-19 6 -13 32 12 49 11 70 -2 68 -7 -2 -13 1 -13 7 0 5 -7 7 -15 4 -8 -3 -17
-26 -21 -51 -5 -37 -10 -44 -25 -40 -11 3 -17 1 -13 -4 3 -5 1 -9 -5 -9 -29 0
0 88 36 109 12 7 14 10 4 11 -7 0 -31 -18 -53 -40 -31 -31 -39 -46 -36 -65 4
-19 1 -25 -13 -25 -16 0 -18 6 -14 48 6 61 -3 76 -39 62 -21 -8 -31 -7 -42 5
-17 17 -25 18 -48 9 -22 -8 -20 -36 2 -32 12 2 16 -3 14 -17 -7 -55 -13 -64
-48 -75 -41 -14 -58 -5 -30 16 19 14 19 14 -2 14 -26 0 -29 25 -7 50 39 43
-24 66 -98 35 -37 -15 -47 -31 -47 -74 0 -41 21 -63 55 -59 18 2 36 -3 46 -13
13 -13 26 -15 58 -9 23 4 45 10 48 14 3 3 12 -2 19 -12 9 -11 13 -13 14 -4 0
7 4 11 9 8 5 -3 11 13 14 36 5 38 30 78 41 67 3 -3 1 -22 -5 -43 -6 -21 -8
-44 -5 -52 7 -19 51 -18 70 2 9 8 22 14 29 11 6 -2 24 0 40 4 33 9 39 -16 6
-26 -28 -9 -59 -63 -59 -102 0 -42 15 -43 16 -2 1 35 38 79 53 64 12 -12 -6
-95 -20 -95 -15 0 -10 44 7 70 l16 25 -21 -24 c-23 -25 -29 -85 -9 -97 17 -11
55 40 63 85 5 33 13 43 43 59 20 10 42 17 49 15 16 -6 63 20 87 46 20 22 20
22 0 15 -10 -4 -23 -10 -29 -14 -5 -4 -18 -10 -29 -14 -14 -5 -17 -3 -12 10 4
12 2 15 -9 10 -8 -3 -15 -1 -15 4 0 6 5 10 10 10 6 0 10 8 10 18 0 23 44 66
61 60 8 -3 0 -12 -19 -23 -34 -20 -39 -30 -21 -40 25 -16 89 20 89 50 0 20
-37 52 -66 58 -18 3 -31 -3 -49 -25z m-437 -29 c3 -11 2 -11 -7 1 -10 13 -13
13 -26 -4 -8 -11 -18 -34 -21 -53 -4 -23 -12 -33 -25 -33 -25 0 -24 27 1 65
28 43 69 56 78 24z m443 -6 c-8 -15 -10 -15 -11 -2 0 17 10 32 18 25 2 -3 -1
-13 -7 -23z m-92 -94 c11 -19 10 -24 -7 -41 -19 -20 -19 -20 -18 21 1 46 5 50
25 20z"/>
<path d="M2275 758 c-15 -18 -27 -48 -31 -78 -9 -70 -32 -67 -31 5 0 30 -2 57
-5 60 -3 3 -17 1 -32 -5 -21 -8 -31 -7 -42 5 -9 8 -19 15 -24 15 -20 0 -40
-13 -40 -27 0 -9 6 -13 14 -10 23 9 25 -1 11 -58 -13 -59 -4 -96 19 -73 7 7
16 28 19 47 7 35 23 61 38 61 4 0 3 -15 -2 -32 -17 -60 -12 -78 19 -78 15 0
33 5 40 12 9 9 15 9 24 0 20 -20 43 -14 84 23 33 30 26 40 -11 15 -24 -17 -44
-18 -57 -2 -9 11 -10 14 0 8 8 -5 12 1 12 22 0 31 40 77 61 70 8 -3 0 -12 -19
-23 -34 -20 -39 -30 -21 -40 25 -16 89 20 89 50 0 20 -37 52 -66 58 -18 3 -31
-3 -49 -25z m6 -35 c-8 -15 -10 -15 -11 -2 0 17 10 32 18 25 2 -3 -1 -13 -7
-23z"/>
<path d="M966 765 c4 -8 10 -15 15 -15 5 0 9 7 9 15 0 8 -7 15 -15 15 -9 0
-12 -6 -9 -15z"/>
<path d="M1530 757 c0 -5 5 -17 10 -28 8 -13 6 -35 -4 -76 -8 -31 -13 -60 -10
-65 10 -16 32 12 43 57 8 32 15 43 25 39 9 -3 20 3 28 15 7 12 19 21 26 21 23
0 8 35 -16 38 -16 3 -25 -3 -32 -22 -12 -33 -24 -34 -18 -1 5 26 -14 36 -28
14 -4 -8 -9 -7 -15 2 -5 8 -9 10 -9 6z m34 -91 c-3 -15 -8 -25 -11 -23 -2 3
-1 17 3 31 3 15 8 25 11 23 2 -3 1 -17 -3 -31z"/>
<path d="M1950 743 c-36 -24 -40 -33 -40 -85 0 -49 16 -68 55 -68 18 0 85 66
85 83 0 6 8 16 18 24 9 8 11 11 4 8 -8 -4 -15 0 -18 11 -5 18 -46 44 -69 44
-6 0 -22 -8 -35 -17z m46 -53 c-3 -31 -22 -60 -37 -60 -15 0 -10 23 11 58 24
40 31 40 26 2z"/>
<path d="M1005 700 c-3 -5 -1 -10 4 -10 6 0 11 5 11 10 0 6 -2 10 -4 10 -3 0
-8 -4 -11 -10z"/>
<path d="M951 684 c0 -11 3 -14 6 -6 3 7 2 16 -1 19 -3 4 -6 -2 -5 -13z"/>
<path d="M1326 447 c-28 -42 -46 -106 -33 -114 15 -10 127 -11 127 -2 0 4 -5
9 -10 11 -6 2 -4 12 5 26 22 30 42 28 22 -2 -13 -20 -14 -26 -3 -35 15 -12 37
1 54 34 10 18 11 17 9 -10 -2 -26 1 -30 23 -27 14 1 35 15 48 30 l23 27 -3
-25 c-2 -20 2 -25 19 -25 12 0 25 -4 28 -7 11 -11 38 3 63 31 l23 26 -3 -25
c-3 -22 1 -25 30 -27 17 -1 30 3 27 8 -7 11 13 49 26 49 6 0 5 -9 -3 -22 -7
-13 -11 -29 -10 -35 2 -7 -2 -13 -8 -13 -6 0 -8 -4 -5 -10 3 -6 -1 -7 -9 -4
-11 4 -16 0 -16 -10 0 -28 25 -18 58 23 33 41 42 62 18 42 -11 -9 -12 -6 -8
14 7 38 -34 34 -56 -5 -21 -36 -31 -39 -24 -5 4 23 2 25 -29 21 -22 -2 -35
-10 -40 -25 -5 -11 -13 -21 -20 -21 -6 0 -8 7 -5 15 3 8 9 22 12 30 3 8 1 15
-5 15 -6 0 -16 -11 -21 -24 -13 -34 -33 -44 -25 -13 7 26 -9 46 -20 27 -4 -6
-15 -8 -25 -5 -13 4 -19 -1 -24 -20 -4 -14 -11 -25 -17 -25 -6 0 -8 9 -4 19 3
11 0 29 -6 40 -12 18 -14 17 -30 -20 -21 -46 -31 -51 -23 -10 9 45 -13 47 -52
6 -19 -20 -40 -35 -47 -32 -7 2 -3 8 11 16 18 10 33 51 18 51 -18 0 -39 -17
-52 -41 -8 -16 -19 -29 -25 -29 -5 0 -4 12 4 28 8 15 12 32 10 39 -2 6 1 14 6
18 7 4 9 -1 5 -12 -3 -10 2 -7 10 7 29 47 11 72 -18 27z m54 -61 c0 -3 -4 -8
-10 -11 -5 -3 -10 -1 -10 4 0 6 5 11 10 11 6 0 10 -2 10 -4z"/>
<path d="M1655 429 c-4 -6 -5 -13 -2 -16 7 -7 27 6 27 18 0 12 -17 12 -25 -2z"/>
<path d="M1140 383 c-23 -29 -22 -41 3 -57 13 -8 21 -6 37 10 17 17 19 25 11
47 -13 34 -24 34 -51 0z m45 -33 c-3 -5 -16 -10 -28 -10 -20 0 -20 0 -1 15 12
9 14 14 6 15 -7 0 -10 5 -7 10 4 6 12 4 21 -5 9 -8 12 -19 9 -25z"/>
<path d="M1220 370 c-11 -7 -4 -10 25 -9 31 0 36 2 20 9 -26 11 -28 11 -45 0z"/>
</g>
</svg>
